<svg width="32" height="32" viewBox="0 0 32 32" fill="none" xmlns="http://www.w3.org/2000/svg">
  <defs>
    <clipPath id="ball">
      <circle cx="16" cy="16" r="14" />
    </clipPath>
  </defs>
  <circle cx="16" cy="16" r="14" fill="#ffffff" stroke="#0b0b0c" stroke-width="2" />
  <g clip-path="url(#ball)" fill="#0b0b0c">
    <!-- center pentagon -->
    <polygon points="16,11.2 20.56,14.52 18.82,19.88 13.18,19.88 11.44,14.52" />
    <!-- rim patches (top patch rotated by 72deg) -->
    <g>
      <polygon points="16,8.8 12.39,6.17 13.77,1.93 18.23,1.93 19.61,6.17" />
      <polygon points="16,8.8 12.39,6.17 13.77,1.93 18.23,1.93 19.61,6.17" transform="rotate(72 16 16)" />
      <polygon points="16,8.8 12.39,6.17 13.77,1.93 18.23,1.93 19.61,6.17" transform="rotate(144 16 16)" />
      <polygon points="16,8.8 12.39,6.17 13.77,1.93 18.23,1.93 19.61,6.17" transform="rotate(216 16 16)" />
      <polygon points="16,8.8 12.39,6.17 13.77,1.93 18.23,1.93 19.61,6.17" transform="rotate(288 16 16)" />
    </g>
  </g>
  <!-- seams from pentagon vertices to rim patches -->
  <g stroke="#0b0b0c" stroke-width="1.4" stroke-linecap="round">
    <line x1="16" y1="11.2" x2="16" y2="8.8" />
    <line x1="16" y1="11.2" x2="16" y2="8.8" transform="rotate(72 16 16)" />
    <line x1="16" y1="11.2" x2="16" y2="8.8" transform="rotate(144 16 16)" />
    <line x1="16" y1="11.2" x2="16" y2="8.8" transform="rotate(216 16 16)" />
    <line x1="16" y1="11.2" x2="16" y2="8.8" transform="rotate(288 16 16)" />
  </g>
</svg>
